<?xml version="1.0" encoding="UTF-8"?>
<svg version="1.1" viewBox="0 0 1024 1024" width="1024" height="1024" xmlns="http://www.w3.org/2000/svg">
<path transform="translate(0)" d="m0 0h1024v1024h-1024z" fill="#0B161F"/>
<path transform="translate(471,582)" d="m0 0h83l5 6 2 6v4l11-4 5-8 2-2 4 5 4 9 8-5 5-8 2 2 4 10 6-3 7-8 1-3h24l7 4 5 8v234l-3 7-6 5-5 2h-261l-8-4-5-7-1-5v-231l4-8 8-5h25l6 9 7 5h2l4-12 4 4 2 5 5 2 4 2 7-14h2l3 7 4 4 9 3 2-8 4-6z" fill="#EAE6E3"/>
<path transform="translate(890,160)" d="m0 0 2 1-3 16-6 16-8 13-9 11-14 14-16 12-13 8-22 12-25 11-11 4 19-4 30-8 37-12 41-16 2-1-3 10-7 13-11 12-12 9-21 11-27 9-29 6-27 3-19 1 19 2 16 1h43l28-2 33-4-2 4-9 11-9 8-14 8-12 5-17 4-10 1h-26l-23-3-25-6-10-3 22 12 23 10 22 8 26 7 21 4-5 5-9 6-13 5-10 2h-23l-18-4-21-8-20-11-15-10v1l9 10 22 22 8 7 14 11 14 9 13 7v2l-14 4-7 1h-11l-10-2-12-5-13-8-14-11-24-24 8 16 10 18 12 18 8 10 11 12 1 2-3 1h-10l-13-4-12-7-12-11-9-9-10-14-7-11 7 26 6 16 7 14 9 14v1l-9-1-14-7-12-10-9-12-9-16-5-11v-4h-2l2 10 3 18 4 15 6 15 1 4-6-2-10-7-8-9-8-13-4-12-1-27 10-8 22-13 16-12 13-13 9-14 6-13 2-9 1-18 1-3h-2l-1 6-6 15-6 12-8 11-7 8-11 9-15 10-16 8-10 4-4-1-10-19-2-4 1-1 18-3 12-4 13-7 12-11 7-10 6-13 6-20 6-11 7-7 11-5 21-6 22-8 26-12 36-18 23-13 29-17 23-15 17-12 10-8 3-3h2z" fill="#EAE6E3"/>
<path transform="translate(134,159)" d="m0 0 7 6 17 12 18 12 17 11 28 17 23 13 26 14 22 11 24 10 37 13 9 6 7 9 4 10 6 19 7 13 9 10 8 7 17 8 11 3 13 2-9 20-3 3-17-5-19-10-13-10-6-5-9-11-7-11-6-13-5-13v18l4 15 7 13 7 9 9 10 11 9 14 9 18 11 6 5v20l-2 13-5 12-8 11-10 10-10 5-1-2 8-20 4-15 3-21v-3l-5 12-8 15-10 13-9 9-11 7-10 4h-8l6-9 8-13 11-26 5-17 1-7-8 14-10 13-9 10-11 9-12 7-8 3-7 1h-8l-3-2 7-7 9-11 10-13 11-18 13-26-5 5-15 16-11 9-14 10-17 8-11 2h-12l-14-3-5-2v-2l17-9 14-10 11-9 15-14 15-15 9-11-11 7-15 9-16 8-15 6-18 4h-25l-15-4-14-7-6-5v-2l29-6 21-6 24-9 24-11 17-9-28 7-25 4-15 1h-12l-20-2-21-6-16-9-11-9-10-13 1-2 29 4 29 2h41l28-2 10-1-29-2-27-4-25-6-23-8-17-9-11-8-10-10-7-11-7-16 9 3 33 13 35 12 33 9 20 4-16-6-20-9-22-12-12-8-12-9-10-9-11-11-10-14-8-16-4-13-1-4z" fill="#EAE6E3"/>
<path transform="translate(471,582)" d="m0 0h83l5 6 2 6v4l11-4 5-8 2-2 4 5 4 9 8-5 5-8 2 2 4 10 6-3 7-8 1-3h24l7 4 5 8v234l-3 7-6 5-5 2h-261l-8-4-5-7-1-5v-231l4-8 8-5h25l6 9 7 5h2l4-12 4 4 2 5 5 2 4 2 7-14h2l3 7 4 4 9 3 2-8 4-6zm-71 24-7 5-3 6v193l5 7 9 3h214l8-2 5-4 2-4v-22h5l4-5v-41l-5-5h-4v-50h5l4-5v-41l-4-4-5-1v-20l-4-6-6-4z" fill="#EBE8E5"/>
<path transform="translate(460,374)" d="m0 0h1l3 14 6 12 3 5v2h2l1-5 2-5h2l5 10 10 13 11 11 5 4 4-2 8-8h2l2-4 8-9 8-14 2-4 6 12 8-15 2-6 1-11 6 5 8 14 4 13 1 5v26l-4 17-7 16-8 13h-1l-3-14-6 15-7 10-13 16-11 12-9 7-6-4-12-11-10-12-11-15-7-15-1-3-2 15-5-4-6-11-5-13-3-12-1-7v-26l4-15 8-16z" fill="#EAE6E3"/>
<path transform="translate(494,244)" d="m0 0h17l12 4 8 6 6 7 5 12 3 14 2 22 5 21 5 15 6 14-6-1-10-9 4 12 1 5v13l-1 5h-2l-10-17-3 17-5 12-7 10-11 10-5-2-10-10-7-11-4-9-2-12-1-2-6 11-5 5-3-15v-15l-5 3-5 1 1-6 8-18 8-12 8-7 1-3-13-2-9-3 1-2 17 2h8l2-4-1-7-10-9-1-6 1-2h2l2 5h9l6-3 6-10 4-3-2-1h-8l-21 7-7-1-6-3-7-2 2-8 7-8 12-6z" fill="#E9E6E3"/>
<path transform="translate(400,606)" d="m0 0h223l6 4 4 6v20l7 2 2 3v41l-4 5h-5v50l6 1 3 4v41l-4 5h-5v22l-4 6-5 3-12 1h-208l-9-3-5-7v-193l4-7zm6 8-5 3-2 2v188l3 3 3 1h215l4-3 1-3v-16l-4-1-5-2-2-4v-39l2-4 8-2 1-49-9-3-2-4v-38l3-5 8-2-1-17-4-4-3-1z" fill="#081017"/>
<path transform="translate(501,661)" d="m0 0h6l1 23h8l1-23 10 1 12 5 9 6v3l-6 7-8 7-2 3 5 5 13-11 7-5 6 12 3 12v14l-1 3-8-1-16-4-1 7 18 7 4 2-2 6-7 10-7 7-8 5h-3l-8-21v-3l-6 3h-3l8 22v4l-5 1h-17l-6-2 3-11 4-14-7-2-10 24-9-5-11-11-7-11v-2l22-9h2l-2-7-25 6-1-6v-9l3-14 6-13 6 4 14 12 5-5v-2l-8-7-9-9 5-5 14-7z" fill="#0A141C"/>
<path transform="translate(507,648)" d="m0 0h11l14 3 12 5 10 7 7 6 8 11 5 10 3 10 1 7v13l-3 14-8 16-9 10-9 8-16 8-14 3h-16l-15-4-14-7-10-9-8-9-7-14-3-11-1-14 2-14 5-13 7-11 10-10 11-7 11-5zm-6 13-13 4-12 7-2 3 15 15 2 1-2 4-3 3-15-13-5-3-6 13-3 14v9l1 6 25-6 2 7-9 3-15 6 2 5 6 9 10 10 9 5 9-23h3l5 1-7 23 1 3 5 1h17l5-1-1-6-7-20 6-1 3-2 1 6 7 18 5-1 9-7 8-9 5-9-1-3-19-7-2-1 1-7 20 5h4l1-3v-14l-4-15-5-9-8 6-12 10-5-5 6-7 8-7 3-5-8-6-11-5-8-2h-5l-1 23h-8l-1-23z" fill="#ECE9E6"/>
<path transform="translate(502,638)" d="m0 0h20l16 4 10 4 12 8 9 8 9 12 7 15 3 13 1 12-2 16-5 15-8 13-9 10-9 8-12 7-15 5-13 2-17-1-15-4-14-7-10-8-9-9-7-11-5-11-4-16v-18l3-14 5-12 7-11 9-10 10-8 16-8zm5 10-16 3-16 8-9 7-7 7-8 13-5 15-1 15 2 14 5 13 7 11 12 12 14 8 13 4 5 1h16l14-3 16-8 10-9 8-9 8-16 3-14v-13l-3-14-4-10-7-10-6-7-12-9-11-5-11-3-6-1z" fill="#09121A"/>
<path transform="translate(584,476)" d="m0 0 4 5 3 11v19l-3 16-3 8h-2l-7-11-5 12-5 8-4-2-9-15-3-8v-3l11-9 9-10 10-14z" fill="#EBE7E5"/>
<path transform="translate(439,476)" d="m0 0 4 5 10 15 11 12 10 9-2 9-6 10-6 8-3-1-8-16-2-2-6 10h-2l-4-13-2-12v-17l3-11z" fill="#EBE8E5"/>
<path transform="translate(451,274)" d="m0 0h11l5 2 6 12 13 13-1 1h-27l-12 2-6 4-5 8-2 2-4-9-1-9 2-9 6-9 9-6z" fill="#E7E4E2"/>
<path transform="translate(509,694)" d="m0 0 9 1 7 4 4 5 1 3v12l-4 7-5 4-5 2h-9l-8-4-4-5-2-4v-12l4-7 7-5z" fill="#EBE7E4"/>
<path transform="translate(884,259)" d="m0 0v3l-9 10-11 9-12 7-21 9-23 7-27 5-17 2 2 1h58l34-3 19-2-1 2-32 4-28 2h-43l-27-2-12-2v-1l23-1 33-4 26-6 24-8 23-12 11-9z" fill="#03070B"/>
<path transform="translate(158,278)" d="m0 0 4 1 14 8 14 6 19 6 21 5 27 4 32 2-3 2-20 2-18 1h-41l-29-2-29-4-2-2 11 1 28 3 12 1h57l5-1-28-4-26-6-20-7-19-9-9-6z" fill="#03070C"/>
<path transform="translate(163,328)" d="m0 0 5 2 13 8 13 5 18 4 14 1h12l23-2 26-5 17-5 4-1v2l-29 15-24 10-27 9-26 6-5 1h-7l4-2 28-6 26-8 25-10 21-10-29 6-18 2h-31l-17-3-15-5-13-7-8-6z" fill="#03060A"/>
<path transform="translate(869,213)" d="m0 0v3l-16 16-16 12-13 8-18 10-19 9h3l32-9 38-13 28-11 6-2-2 3-36 14-36 12-28 8-25 6-3-1 12-5 27-12 24-13 17-12 11-9z" fill="#03060A"/>
<path transform="translate(394,851)" d="m0 0 36 1-4 8-4 3h-28z" fill="#EDEAE8"/>
<path transform="translate(595,852)" d="m0 0h35v11h-27l-5-4z" fill="#EDEAE7"/>
<path transform="translate(623,746)" d="m0 0h10v33h-10z" fill="#E9E5E2"/>
<path transform="translate(624,645)" d="m0 0h9v33h-10v-32z" fill="#F0EEEC"/>
<path transform="translate(868,320)" d="m0 0v3l-10 9-15 9-13 5-19 4h-39l-20-3-13-3h-3l16 8 25 10 6 2v1l-7-1-18-7-22-10-18-10 3-1 20 6 20 4 17 2h26l15-2 15-4 17-8 12-9z" fill="#020509"/>
<path transform="translate(131,236)" d="m0 0 9 3 39 15 27 9 32 9h2l-23-11-19-11-13-9 2-1 17 11 24 13 26 11 7 3-3 1-30-7-30-9-29-10-30-12-8-4z" fill="#03070A"/>
<path transform="translate(458,562)" d="m0 0 8 1 6 6v5l-9 5-6 9-4-4-1-3v-9l3-7z" fill="#EDEAE7"/>
<path transform="translate(561,562)" d="m0 0 7 1 4 8v10l-3 6-2 1-4-7-4-4-7-3 1-6 5-5z" fill="#EDEAE7"/>
<path transform="translate(697,361)" d="m0 0 4 2 21 13 15 8 22 8 15 3h23l16-4 14-7 5-4 2 1-12 9-13 5-15 3h-17l-20-4-21-8-19-10-10-6 25 25 2 1-1 2-8-7-24-24z" fill="#03060A"/>
<path transform="translate(674,386)" d="m0 0 4 2 7 8 16 16 16 12 15 8 9 3 7 1h11l15-3 4 1-9 3-5 1h-21l-12-4-18-10-16-13-16-16 8 16 10 17 10 14 6 7-1 2-8-9-12-18-10-17-8-16z" fill="#020609"/>
<path transform="translate(438,563)" d="m0 0h8l1 4-2 8-6 5-4 6-3-1-2-6v-7l3-6z" fill="#EBE8E5"/>
<path transform="translate(578,563)" d="m0 0h8l5 3 3 5v10l-3 5h-2l-5-8-5-4-2-10z" fill="#E9E5E2"/>
<path transform="translate(405,418)" d="m0 0 1 4-3 21-4 15-8 20-2 1 3-10 6-15 4-19v-4l-9 16-10 13-9 9-11 7-9 4-10 1 2-2 12-3 11-6 12-11 10-13 11-21z" fill="#03060A"/>
<path transform="translate(496,737)" d="m0 0 6 1 5 3-5 19-2 5 14 1 9-1-3-12h2l4 10v4l-5 1h-17l-6-2 3-11 4-14-7-2-10 24-9-5-8-8 1-2 7 7 8 5 8-22z" fill="#03060A"/>
<path transform="translate(614,684)" d="m0 0 4 2 7 2-1 49-8 2-2 4v39l3 5 7 1 1 3v14l-2 2v-17l-7-1-4-5v-42l3-5 5-2h3v-46l-7-1z" fill="#F7F6F5"/>
<path transform="translate(600,564)" d="m0 0 7 1 5 5 1 3v9l-4 4-4-9-4-3-2-7-1-2z" fill="#EBE7E5"/>
<path transform="translate(618,418)" d="m0 0h2l5 13 8 15 8 11 2 4-6-5-9-14-6-11 3 17 6 20 4 9-1 2-6-12-5-16-3-15z" fill="#03080C"/>
<path transform="translate(420,564)" d="m0 0 6 1-3 9-4 4-3 8-4-3-1-7 2-7 4-4z" fill="#EFECEA"/>
<path transform="translate(718,336)" d="m0 0 9 2 18 5 16 3v1h-9l-13-3h-3l16 8 25 10 6 2v1l-7-1-18-7-22-10-18-10z" fill="#03070B"/>
<path transform="translate(535,260)" d="m0 0 3 3 5 13 2 11 2 22 5 21 5 15 6 14-6-1-2-3 4 1-8-21-6-22-3-31-5-16z" fill="#F7F7F5"/>
<path transform="translate(130,237)" d="m0 0 9 3 33 13 35 12 5 2-3 1-36-12-28-11-11-4 7 15-1 2-8-16z" fill="#F8F7F6"/>
<path transform="translate(480,656)" d="m0 0 2 1-10 7-14 14-7 14-3 12v18l3 13 3 9-3-3-4-11-2-14 1-15 5-15 6-10 9-10 10-8z" fill="#F7F6F4"/>
<path transform="translate(623,746)" d="m0 0h7v2h-5v28l-1 2 7-1v-31h2v33h-10z" fill="#FBFBFA"/>
<path transform="translate(375,405)" d="m0 0 1 4-5 19-9 22-8 16-6 8v-3l8-14 8-17 7-21v-2l-3 5-2-1z" fill="#03060A"/>
<path transform="translate(648,406)" d="m0 0 3 3 8 13 3 4-1 2-6-8-2-2 6 20 6 15 5 10-1 2-6-11-6-14-7-24z" fill="#03070A"/>
<path transform="translate(349,307)" d="m0 0 2 3 3 8-1 4-2-5 2 18 6 15 8 12 2 4-5-4-8-13-5-12-2-9z" fill="#03070B"/>
<path transform="translate(484,369)" d="m0 0 2 3 2 12 8 16 11 12 4 3-1 2-8-7-8-9-6-10-5-15-4 4 2-6z" fill="#03070B"/>
<path transform="translate(675,307)" d="m0 0h2l-1 16-2-1-1-2-7 16-10 15-5 4 2-4 8-11 8-16z" fill="#03070A"/>
<path transform="translate(734,310)" d="m0 0h26v1l6 1 22 1v1h-31l-19-2z" fill="#010407"/>
<path transform="translate(253,309)" d="m0 0h15l21 1-3 2-20 2h-13l2-2 5-1-7-1z" fill="#020509"/>
<path transform="translate(578,563)" d="m0 0h8l5 3 3 5v10l-3 5h-2l-5-8-5-4-2-10zm2 1-1 3 2 7 6 5 3 5 2-2 1-8-3-7-2-2z" fill="#F8F7F6"/>
<path transform="translate(134,159)" d="m0 0 6 5h-3l1 10 6 16 8 14v3l-7-10-7-15-4-15z" fill="#F7F6F4"/>
<path transform="translate(546,348)" d="m0 0 7 6 8 5-3 1-7-5 3 12v9l-2 9h-1v-19l-3-12z" fill="#02060A"/>
<path transform="translate(404,581)" d="m0 0 3 3 4 7 7 4 3-10h1v7l-3 6-5-2-7-6-3-6-22-1v-1z" fill="#080F16"/>
<path transform="translate(480,656)" d="m0 0 2 1-10 7-14 14-5 9-2-1 6-10 9-10 10-8z" fill="#F5F4F2"/>
<path transform="translate(614,684)" d="m0 0 4 2 7 2-1 48-4-1h3v-46l-7-1z" fill="#FAFAF8"/>
<path transform="translate(349,385)" d="m0 0 1 2-14 28-2 1 2-6 7-15-5 4 2-4z" fill="#04080C"/>
<path transform="translate(375,405)" d="m0 0 1 4-5 19-2 5-1-4 3-12-3 5-2-1z" fill="#04080C"/>
<path transform="translate(558,466)" d="m0 0h1l2 16-2 1-1-8-8 15-3 2 2-5 6-12z" fill="#03060A"/>
<path transform="translate(307,335)" d="m0 0 1 2-27 14-1-2 14-7-3-2z" fill="#040A0E"/>
<path transform="translate(674,386)" d="m0 0 4 2 7 8 13 13h-3l-14-14-4-2z" fill="#050A0F"/>
<path transform="translate(464,307)" d="m0 0 26 3-1 2-11-1v1l-8-1-6-2z" fill="#F7F6F4"/>
<path transform="translate(481,281)" d="m0 0h2l2 5h9l6-3 3-2-2 4-5 3h-12l1 3-4-2-1-6z" fill="#F8F7F6"/>
<path transform="translate(783,270)" d="m0 0 2 1-3 1v2l2 1-17 4-3-1 12-5z" fill="#04090E"/>
<path transform="translate(520,753)" d="m0 0h2l4 10v4l-5 1h-13l1-2 14-1z" fill="#020509"/>
<path transform="translate(600,564)" d="m0 0 7 1 5 5 1 3v9l-4 4-1-6 2 2 1-2-1-9-4-4h-7l-1-2z" fill="#F7F6F4"/>
<path transform="translate(434,565)" d="m0 0 2 1-3 4v11l1 2 4-4-1 4-2 3-3-1-2-6v-7l3-6z" fill="#F6F5F4"/>
<path transform="translate(602,361)" d="m0 0 4 1-10 3-12 2-2 1-1 2-2-4 1-1 18-3z" fill="#F6F5F3"/>
<path transform="translate(576,523)" d="m0 0 3 4 4 6-1 3-5-8-6 11-2-1 5-11z" fill="#03070B"/>
<path transform="translate(130,237)" d="m0 0 9 3-4 1v3l6 12-1 2-8-16z" fill="#F7F6F5"/>
<path transform="translate(500,268)" d="m0 0h8l3 3-5 3-2-1 2-3-14 2 1-2z" fill="#03070B"/>
<path transform="translate(618,418)" d="m0 0h2l3 10h-2l1 3v7l-2-2z" fill="#050A0F"/>
<path transform="translate(325,361)" d="m0 0 2 1-9 10-2-2-1-2z" fill="#03070C"/>
<path transform="translate(246,273)" d="m0 0 5 1 10 4-3 1-13-3z" fill="#04090E"/>
<path transform="translate(423,585)" d="m0 0 4 4 2 5-4-4-5 9-3-1 2-1z" fill="#F9F8F7"/>
<path transform="translate(718,336)" d="m0 0 9 2 6 2-4 3-11-6z" fill="#050A10"/>
<path transform="translate(628,467)" d="m0 0 2 2 4 9v2l-6-2-3-3 6 2-3-7z" fill="#F6F5F3"/>
<path transform="translate(562,374)" d="m0 0 6 5 2 5-5-5-2 6h-1z" fill="#F8F8F6"/>
<path transform="translate(421,585)" d="m0 0h1v7l-3 6-5-2-2-3 6 2z" fill="#03070B"/>
<path transform="translate(697,361)" d="m0 0 4 2 8 5-4 2-5-5z" fill="#050A10"/>
<path transform="translate(405,418)" d="m0 0 1 4-1 9-4-4z" fill="#060C12"/>
<path transform="translate(484,369)" d="m0 0 2 3-1 4h-2l-4 4 2-6z" fill="#04080D"/>
<path transform="translate(349,307)" d="m0 0 2 3 3 8-1 4-2-6h-2z" fill="#020609"/>
</svg>
